<svg width="513" height="188" viewBox="0 0 513 188" fill="none" xmlns="http://www.w3.org/2000/svg">
<path d="M240.908 58.9268C240.546 57.5845 240.013 56.402 239.31 55.3793C238.607 54.3352 237.744 53.451 236.722 52.7266C235.699 52.0021 234.527 51.4588 233.206 51.0966C231.885 50.7131 230.436 50.5213 228.859 50.5213C225.685 50.5213 222.936 51.2883 220.614 52.8224C218.312 54.3565 216.533 56.5937 215.276 59.5341C214.019 62.4531 213.391 66.0007 213.391 70.1768C213.391 74.3743 213.998 77.9538 215.212 80.9155C216.427 83.8771 218.185 86.1357 220.486 87.6911C222.787 89.2464 225.578 90.0241 228.859 90.0241C231.757 90.0241 234.207 89.5554 236.21 88.6179C238.234 87.6591 239.768 86.3061 240.812 84.5589C241.857 82.8118 242.379 80.7557 242.379 78.3906L245.319 78.7422H229.403V67.2045H257.624V75.8658C257.624 81.7251 256.377 86.7429 253.884 90.919C251.413 95.0952 248.004 98.3018 243.657 100.539C239.332 102.776 234.357 103.895 228.732 103.895C222.489 103.895 217.002 102.542 212.272 99.8359C207.542 97.13 203.856 93.2734 201.214 88.2663C198.572 83.2379 197.251 77.272 197.251 70.3686C197.251 64.9993 198.05 60.2372 199.648 56.0824C201.246 51.9062 203.472 48.3693 206.327 45.4716C209.204 42.5739 212.528 40.3793 216.299 38.8878C220.092 37.3963 224.172 36.6506 228.54 36.6506C232.332 36.6506 235.859 37.1939 239.119 38.2805C242.4 39.3672 245.298 40.9013 247.812 42.8828C250.347 44.8643 252.403 47.2188 253.98 49.946C255.557 52.6733 256.537 55.6669 256.92 58.9268H240.908ZM266.948 103V37.5455H293.986C298.887 37.5455 303.116 38.4297 306.675 40.1982C310.254 41.9453 313.013 44.4595 314.952 47.7408C316.891 51.0007 317.861 54.8679 317.861 59.3423C317.861 63.8807 316.87 67.7372 314.888 70.9119C312.907 74.0653 310.094 76.473 306.451 78.1349C302.807 79.7756 298.493 80.5959 293.507 80.5959H276.408V68.1314H290.567C292.953 68.1314 294.945 67.8224 296.543 67.2045C298.162 66.5653 299.388 65.6065 300.219 64.3281C301.05 63.0284 301.465 61.3665 301.465 59.3423C301.465 57.3182 301.05 55.6456 300.219 54.3246C299.388 52.9822 298.162 51.9808 296.543 51.3203C294.924 50.6385 292.932 50.2976 290.567 50.2976H282.768V103H266.948ZM303.798 73.0852L320.098 103H302.839L286.859 73.0852H303.798ZM388.317 70.2727C388.317 77.4744 386.932 83.5788 384.162 88.5859C381.392 93.593 377.642 97.3963 372.912 99.9957C368.203 102.595 362.919 103.895 357.06 103.895C351.179 103.895 345.884 102.585 341.176 99.9638C336.467 97.343 332.727 93.5398 329.958 88.554C327.209 83.5469 325.835 77.4531 325.835 70.2727C325.835 63.071 327.209 56.9666 329.958 51.9595C332.727 46.9524 336.467 43.1491 341.176 40.5497C345.884 37.9503 351.179 36.6506 357.06 36.6506C362.919 36.6506 368.203 37.9503 372.912 40.5497C377.642 43.1491 381.392 46.9524 384.162 51.9595C386.932 56.9666 388.317 63.071 388.317 70.2727ZM372.145 70.2727C372.145 66.0114 371.538 62.4105 370.323 59.4702C369.13 56.5298 367.404 54.3033 365.146 52.7905C362.909 51.2777 360.213 50.5213 357.06 50.5213C353.928 50.5213 351.232 51.2777 348.974 52.7905C346.715 54.3033 344.979 56.5298 343.764 59.4702C342.571 62.4105 341.975 66.0114 341.975 70.2727C341.975 74.5341 342.571 78.1349 343.764 81.0753C344.979 84.0156 346.715 86.2422 348.974 87.755C351.232 89.2678 353.928 90.0241 357.06 90.0241C360.213 90.0241 362.909 89.2678 365.146 87.755C367.404 86.2422 369.13 84.0156 370.323 81.0753C371.538 78.1349 372.145 74.5341 372.145 70.2727ZM409.994 103L390.946 37.5455H408.428L418.304 80.4361H418.847L430.129 37.5455H444.383L455.665 80.532H456.208L466.116 37.5455H483.566L464.55 103H449.305L437.512 63.3054H437L425.207 103H409.994Z" fill="white"/>
<path d="M236.25 130.5H233.75C233.49 129.146 233.001 127.837 232.285 126.574C231.569 125.298 230.645 124.152 229.512 123.137C228.392 122.108 227.09 121.294 225.605 120.695C224.121 120.096 222.48 119.797 220.684 119.797C218.053 119.797 215.632 120.5 213.418 121.906C211.217 123.299 209.453 125.35 208.125 128.059C206.81 130.767 206.152 134.081 206.152 138C206.152 141.945 206.81 145.272 208.125 147.98C209.453 150.689 211.217 152.74 213.418 154.133C215.632 155.513 218.053 156.203 220.684 156.203C222.48 156.203 224.121 155.91 225.605 155.324C227.09 154.725 228.392 153.918 229.512 152.902C230.645 151.874 231.569 150.721 232.285 149.445C233.001 148.169 233.49 146.854 233.75 145.5H236.25C235.964 147.115 235.41 148.697 234.59 150.246C233.783 151.796 232.715 153.202 231.387 154.465C230.072 155.715 228.516 156.711 226.719 157.453C224.935 158.182 222.923 158.547 220.684 158.547C217.35 158.547 214.414 157.701 211.875 156.008C209.336 154.302 207.344 151.906 205.898 148.82C204.466 145.734 203.75 142.128 203.75 138C203.75 133.872 204.466 130.266 205.898 127.18C207.344 124.094 209.336 121.704 211.875 120.012C214.414 118.306 217.35 117.453 220.684 117.453C222.923 117.453 224.935 117.824 226.719 118.566C228.516 119.296 230.072 120.285 231.387 121.535C232.715 122.772 233.783 124.165 234.59 125.715C235.41 127.264 235.964 128.859 236.25 130.5ZM245.635 158V118H257.959C260.485 118 262.66 118.495 264.482 119.484C266.305 120.474 267.705 121.848 268.682 123.605C269.658 125.35 270.146 127.382 270.146 129.699C270.146 131.991 269.658 134.009 268.682 135.754C267.705 137.486 266.305 138.84 264.482 139.816C262.673 140.793 260.505 141.281 257.979 141.281H246.943V138.996H257.92C259.977 138.996 261.735 138.612 263.193 137.844C264.652 137.076 265.771 136.001 266.553 134.621C267.334 133.228 267.725 131.587 267.725 129.699C267.725 127.798 267.334 126.145 266.553 124.738C265.771 123.319 264.645 122.219 263.174 121.437C261.715 120.656 259.958 120.266 257.9 120.266H248.076V158H245.635ZM262.061 139.875L271.904 158H269.092L259.307 139.875H262.061ZM279.902 158V118H302.168V120.266H282.344V136.848H300.977V139.113H282.344V155.734H302.637V158H279.902ZM310.747 158H308.169L322.603 118H325.415L339.849 158H337.271L324.106 121.145H323.911L310.747 158ZM314.399 142.941H333.618V145.207H314.399V142.941ZM339.98 120.266V118H368.008V120.266H355.215V158H352.773V120.266H339.98ZM407.056 138C407.056 142.128 406.34 145.734 404.907 148.82C403.475 151.893 401.483 154.283 398.931 155.988C396.392 157.694 393.462 158.547 390.142 158.547C386.808 158.547 383.866 157.694 381.313 155.988C378.774 154.27 376.789 151.874 375.356 148.801C373.924 145.715 373.208 142.115 373.208 138C373.208 133.872 373.924 130.272 375.356 127.199C376.802 124.126 378.794 121.737 381.333 120.031C383.872 118.312 386.808 117.453 390.142 117.453C393.462 117.453 396.392 118.306 398.931 120.012C401.483 121.717 403.475 124.113 404.907 127.199C406.34 130.272 407.056 133.872 407.056 138ZM404.673 138C404.673 134.289 404.048 131.073 402.798 128.352C401.561 125.63 399.849 123.527 397.661 122.043C395.474 120.546 392.967 119.797 390.142 119.797C387.316 119.797 384.81 120.539 382.622 122.023C380.435 123.495 378.716 125.598 377.466 128.332C376.229 131.053 375.61 134.276 375.61 138C375.61 141.685 376.222 144.895 377.446 147.629C378.683 150.35 380.396 152.46 382.583 153.957C384.771 155.454 387.29 156.203 390.142 156.203C392.967 156.203 395.474 155.461 397.661 153.977C399.849 152.479 401.561 150.37 402.798 147.648C404.048 144.927 404.673 141.711 404.673 138ZM416.597 158V118H428.921C431.447 118 433.621 118.495 435.444 119.484C437.267 120.474 438.667 121.848 439.644 123.605C440.62 125.35 441.108 127.382 441.108 129.699C441.108 131.991 440.62 134.009 439.644 135.754C438.667 137.486 437.267 138.84 435.444 139.816C433.634 140.793 431.466 141.281 428.94 141.281H417.905V138.996H428.882C430.939 138.996 432.697 138.612 434.155 137.844C435.614 137.076 436.733 136.001 437.515 134.621C438.296 133.228 438.687 131.587 438.687 129.699C438.687 127.798 438.296 126.145 437.515 124.738C436.733 123.319 435.607 122.219 434.136 121.437C432.677 120.656 430.92 120.266 428.862 120.266H419.038V158H416.597ZM433.022 139.875L442.866 158H440.054L430.269 139.875H433.022ZM472.427 128C472.218 125.513 471.203 123.501 469.38 121.965C467.57 120.428 465.226 119.66 462.349 119.66C460.409 119.66 458.683 120.018 457.173 120.734C455.662 121.451 454.478 122.427 453.618 123.664C452.759 124.901 452.329 126.32 452.329 127.922C452.329 128.951 452.524 129.882 452.915 130.715C453.319 131.535 453.885 132.271 454.614 132.922C455.343 133.56 456.209 134.12 457.212 134.602C458.215 135.083 459.321 135.507 460.532 135.871L464.907 137.16C466.405 137.616 467.785 138.143 469.048 138.742C470.324 139.341 471.431 140.057 472.368 140.891C473.319 141.711 474.054 142.674 474.575 143.781C475.109 144.888 475.376 146.164 475.376 147.609C475.376 149.719 474.829 151.607 473.735 153.273C472.655 154.94 471.112 156.255 469.106 157.219C467.114 158.169 464.764 158.645 462.056 158.645C459.478 158.645 457.231 158.208 455.317 157.336C453.416 156.464 451.912 155.253 450.806 153.703C449.699 152.141 449.074 150.344 448.931 148.312H451.431C451.561 149.966 452.088 151.398 453.013 152.609C453.95 153.807 455.194 154.732 456.743 155.383C458.293 156.034 460.063 156.359 462.056 156.359C464.204 156.359 466.099 155.995 467.739 155.266C469.38 154.523 470.662 153.495 471.587 152.18C472.511 150.865 472.974 149.335 472.974 147.59C472.974 146.184 472.642 144.979 471.978 143.977C471.313 142.974 470.33 142.108 469.028 141.379C467.739 140.65 466.138 139.999 464.224 139.426L459.556 138.02C456.431 137.069 454.041 135.773 452.388 134.133C450.747 132.492 449.927 130.448 449.927 128C449.927 125.943 450.474 124.12 451.567 122.531C452.661 120.93 454.146 119.673 456.021 118.762C457.909 117.85 460.037 117.395 462.407 117.395C464.79 117.395 466.893 117.857 468.716 118.781C470.539 119.693 471.984 120.949 473.052 122.551C474.119 124.139 474.712 125.956 474.829 128H472.427Z" fill="white"/>
<path d="M121.256 154.115C116.583 161.808 105.417 161.808 100.744 154.115L40.0729 54.2297C35.2154 46.2327 40.9725 36 50.3291 36L171.671 36C181.028 36 186.785 46.2327 181.927 54.2297L121.256 154.115Z" fill="url(#paint0_linear_47_4)"/>
<defs>
<linearGradient id="paint0_linear_47_4" x1="111" y1="25.0001" x2="110.969" y2="162" gradientUnits="userSpaceOnUse">
<stop stop-color="#00FF67"/>
<stop offset="1" stop-color="#048C3B"/>
<stop offset="1" stop-color="#00742F"/>
</linearGradient>
</defs>
</svg>
